<svg width="30" height="30" viewBox="0 0 30 30" fill="none" xmlns="http://www.w3.org/2000/svg">
<path d="M20 17.5C21.6576 17.5 23.2473 18.1585 24.4194 19.3306C25.5915 20.5027 26.25 22.0924 26.25 23.75V25C26.25 25.663 25.9866 26.2989 25.5178 26.7678C25.0489 27.2366 24.413 27.5 23.75 27.5H6.25C5.58696 27.5 4.95107 27.2366 4.48223 26.7678C4.01339 26.2989 3.75 25.663 3.75 25V23.75C3.75 22.0924 4.40848 20.5027 5.58058 19.3306C6.75269 18.1585 8.3424 17.5 10 17.5H20ZM26.7675 11.3513C26.9919 11.1247 27.2945 10.9925 27.6132 10.9816C27.9319 10.9708 28.2427 11.0822 28.482 11.2931C28.7212 11.5039 28.8709 11.7982 28.9003 12.1158C28.9296 12.4333 28.8365 12.7501 28.64 13.0013L28.535 13.12L25 16.655C24.7848 16.8702 24.4984 16.9995 24.1946 17.0186C23.8908 17.0377 23.5905 16.9453 23.35 16.7587L23.2325 16.655L21.465 14.8875C21.2384 14.6631 21.1062 14.3605 21.0954 14.0418C21.0846 13.7231 21.196 13.4123 21.4068 13.173C21.6177 12.9338 21.912 12.7841 22.2295 12.7547C22.5471 12.7254 22.8638 12.8185 23.115 13.015L23.2325 13.12L24.1162 14.0038L26.7675 11.3513ZM15 2.5C16.6576 2.5 18.2473 3.15848 19.4194 4.33058C20.5915 5.50269 21.25 7.0924 21.25 8.75C21.25 10.4076 20.5915 11.9973 19.4194 13.1694C18.2473 14.3415 16.6576 15 15 15C13.3424 15 11.7527 14.3415 10.5806 13.1694C9.40848 11.9973 8.75 10.4076 8.75 8.75C8.75 7.0924 9.40848 5.50269 10.5806 4.33058C11.7527 3.15848 13.3424 2.5 15 2.5Z" fill="#0D99FF"/>
</svg>
