<svg width="32" height="32" viewBox="0 0 32 32" fill="none" xmlns="http://www.w3.org/2000/svg">
<g clip-path="url(#clip0_73_180)">
<path d="M24.9143 24H24.7112C24.4716 22.8333 24.0497 21.7604 23.4456 20.7812C22.8414 19.8021 22.107 18.9583 21.2424 18.25C20.3778 17.5417 19.4039 16.9896 18.3206 16.5938C17.2372 16.1979 16.1018 16 14.9143 16C13.9976 16 13.1122 16.1198 12.2581 16.3594C11.4039 16.599 10.607 16.9323 9.86743 17.3594C9.12785 17.7865 8.45597 18.3073 7.85181 18.9219C7.24764 19.5365 6.72681 20.2135 6.28931 20.9531C5.85181 21.6927 5.51326 22.4896 5.27368 23.3438C5.0341 24.1979 4.91431 25.0833 4.91431 26H2.91431C2.91431 24.75 3.0966 23.5469 3.46118 22.3906C3.82577 21.2344 4.35181 20.1667 5.03931 19.1875C5.72681 18.2083 6.53931 17.3385 7.47681 16.5781C8.41431 15.8177 9.47681 15.2188 10.6643 14.7812C9.48722 14.0104 8.57056 13.0417 7.91431 11.875C7.25806 10.7083 6.92472 9.41667 6.91431 8C6.91431 6.89583 7.12264 5.85938 7.53931 4.89062C7.95597 3.92188 8.52368 3.07292 9.24243 2.34375C9.96118 1.61458 10.8101 1.04167 11.7893 0.625C12.7685 0.208333 13.8101 0 14.9143 0C16.0185 0 17.0549 0.208333 18.0237 0.625C18.9924 1.04167 19.8414 1.60938 20.5706 2.32812C21.2997 3.04688 21.8726 3.89583 22.2893 4.875C22.706 5.85417 22.9143 6.89583 22.9143 8C22.9143 8.6875 22.831 9.35938 22.6643 10.0156C22.4976 10.6719 22.2476 11.2917 21.9143 11.875C21.581 12.4583 21.1903 12.9948 20.7424 13.4844C20.2945 13.974 19.7685 14.4062 19.1643 14.7812C20.331 15.2292 21.4039 15.8438 22.3831 16.625C23.3622 17.4062 24.206 18.3229 24.9143 19.375V24ZM8.91431 8C8.91431 8.83333 9.07056 9.60938 9.38306 10.3281C9.69556 11.0469 10.1226 11.6823 10.6643 12.2344C11.206 12.7865 11.8414 13.2188 12.5706 13.5312C13.2997 13.8438 14.081 14 14.9143 14C15.7372 14 16.5133 13.8438 17.2424 13.5312C17.9716 13.2188 18.607 12.7917 19.1487 12.25C19.6903 11.7083 20.1226 11.0729 20.4456 10.3438C20.7685 9.61458 20.9247 8.83333 20.9143 8C20.9143 7.17708 20.7581 6.40104 20.4456 5.67188C20.1331 4.94271 19.706 4.30729 19.1643 3.76562C18.6226 3.22396 17.982 2.79167 17.2424 2.46875C16.5028 2.14583 15.7268 1.98958 14.9143 2C14.081 2 13.3049 2.15625 12.5862 2.46875C11.8674 2.78125 11.232 3.20833 10.6799 3.75C10.1278 4.29167 9.69556 4.93229 9.38306 5.67188C9.07056 6.41146 8.91431 7.1875 8.91431 8ZM28.9143 26H32.9143V28H28.9143V32H26.9143V28H22.9143V26H26.9143V22H28.9143V26Z" fill="black"/>
</g>
<defs>
<clipPath id="clip0_73_180">
<rect width="32" height="32" fill="white"/>
</clipPath>
</defs>
</svg>
