<svg width="45" height="45" viewBox="0 0 45 45" fill="none" xmlns="http://www.w3.org/2000/svg">
<rect x="0.5" y="0.5" width="44" height="44" rx="22" stroke="black"/>
<g clip-path="url(#clip0_73_212)">
<path d="M32.9143 30H32.7112C32.4716 28.8333 32.0497 27.7604 31.4456 26.7812C30.8414 25.8021 30.107 24.9583 29.2424 24.25C28.3778 23.5417 27.4039 22.9896 26.3206 22.5938C25.2372 22.1979 24.1018 22 22.9143 22C21.9976 22 21.1122 22.1198 20.2581 22.3594C19.4039 22.599 18.607 22.9323 17.8674 23.3594C17.1278 23.7865 16.456 24.3073 15.8518 24.9219C15.2476 25.5365 14.7268 26.2135 14.2893 26.9531C13.8518 27.6927 13.5133 28.4896 13.2737 29.3438C13.0341 30.1979 12.9143 31.0833 12.9143 32H10.9143C10.9143 30.75 11.0966 29.5469 11.4612 28.3906C11.8258 27.2344 12.3518 26.1667 13.0393 25.1875C13.7268 24.2083 14.5393 23.3385 15.4768 22.5781C16.4143 21.8177 17.4768 21.2188 18.6643 20.7812C17.4872 20.0104 16.5706 19.0417 15.9143 17.875C15.2581 16.7083 14.9247 15.4167 14.9143 14C14.9143 12.8958 15.1226 11.8594 15.5393 10.8906C15.956 9.92188 16.5237 9.07292 17.2424 8.34375C17.9612 7.61458 18.8101 7.04167 19.7893 6.625C20.7685 6.20833 21.8101 6 22.9143 6C24.0185 6 25.0549 6.20833 26.0237 6.625C26.9924 7.04167 27.8414 7.60938 28.5706 8.32812C29.2997 9.04688 29.8726 9.89583 30.2893 10.875C30.706 11.8542 30.9143 12.8958 30.9143 14C30.9143 14.6875 30.831 15.3594 30.6643 16.0156C30.4976 16.6719 30.2476 17.2917 29.9143 17.875C29.581 18.4583 29.1903 18.9948 28.7424 19.4844C28.2945 19.974 27.7685 20.4062 27.1643 20.7812C28.331 21.2292 29.4039 21.8438 30.3831 22.625C31.3622 23.4062 32.206 24.3229 32.9143 25.375V30ZM16.9143 14C16.9143 14.8333 17.0706 15.6094 17.3831 16.3281C17.6956 17.0469 18.1226 17.6823 18.6643 18.2344C19.206 18.7865 19.8414 19.2188 20.5706 19.5312C21.2997 19.8438 22.081 20 22.9143 20C23.7372 20 24.5133 19.8438 25.2424 19.5312C25.9716 19.2188 26.607 18.7917 27.1487 18.25C27.6903 17.7083 28.1226 17.0729 28.4456 16.3438C28.7685 15.6146 28.9247 14.8333 28.9143 14C28.9143 13.1771 28.7581 12.401 28.4456 11.6719C28.1331 10.9427 27.706 10.3073 27.1643 9.76562C26.6226 9.22396 25.982 8.79167 25.2424 8.46875C24.5028 8.14583 23.7268 7.98958 22.9143 8C22.081 8 21.3049 8.15625 20.5862 8.46875C19.8674 8.78125 19.232 9.20833 18.6799 9.75C18.1278 10.2917 17.6956 10.9323 17.3831 11.6719C17.0706 12.4115 16.9143 13.1875 16.9143 14ZM36.9143 32H40.9143V34H36.9143V38H34.9143V34H30.9143V32H34.9143V28H36.9143V32Z" fill="black"/>
</g>
<defs>
<clipPath id="clip0_73_212">
<rect width="32" height="32" fill="white" transform="translate(8 6)"/>
</clipPath>
</defs>
</svg>
