<svg width="30" height="30" viewBox="0 0 30 30" fill="none" xmlns="http://www.w3.org/2000/svg">
<path fill-rule="evenodd" clip-rule="evenodd" d="M20 17.5C21.6576 17.5 23.2473 18.1585 24.4194 19.3306C25.5915 20.5027 26.25 22.0924 26.25 23.75V26.25C26.25 26.5815 26.1183 26.8995 25.8839 27.1339C25.6495 27.3683 25.3315 27.5 25 27.5C24.6685 27.5 24.3505 27.3683 24.1161 27.1339C23.8817 26.8995 23.75 26.5815 23.75 26.25V23.75C23.75 22.7554 23.3549 21.8016 22.6517 21.0983C21.9484 20.3951 20.9946 20 20 20H10C9.00544 20 8.05161 20.3951 7.34835 21.0983C6.64509 21.8016 6.25 22.7554 6.25 23.75V26.25C6.25 26.5815 6.1183 26.8995 5.88388 27.1339C5.64946 27.3683 5.33152 27.5 5 27.5C4.66848 27.5 4.35054 27.3683 4.11612 27.1339C3.8817 26.8995 3.75 26.5815 3.75 26.25V23.75C3.75 22.0924 4.40848 20.5027 5.58058 19.3306C6.75269 18.1585 8.3424 17.5 10 17.5H20ZM26.7675 11.3513C26.9919 11.1247 27.2945 10.9925 27.6132 10.9816C27.9319 10.9708 28.2427 11.0822 28.482 11.2931C28.7212 11.5039 28.8709 11.7982 28.9003 12.1158C28.9296 12.4333 28.8365 12.7501 28.64 13.0013L28.535 13.12L25 16.655C24.7848 16.8702 24.4984 16.9995 24.1946 17.0186C23.8908 17.0377 23.5905 16.9453 23.35 16.7587L23.2325 16.655L21.465 14.8875C21.2384 14.6631 21.1062 14.3605 21.0954 14.0418C21.0846 13.7231 21.196 13.4123 21.4068 13.173C21.6177 12.9338 21.912 12.7841 22.2295 12.7547C22.5471 12.7254 22.8638 12.8185 23.115 13.015L23.2325 13.1187L24.1162 14.0038L26.7675 11.3513ZM15 2.5C16.6576 2.5 18.2473 3.15848 19.4194 4.33058C20.5915 5.50269 21.25 7.0924 21.25 8.75C21.25 10.4076 20.5915 11.9973 19.4194 13.1694C18.2473 14.3415 16.6576 15 15 15C13.3424 15 11.7527 14.3415 10.5806 13.1694C9.40848 11.9973 8.75 10.4076 8.75 8.75C8.75 7.0924 9.40848 5.50269 10.5806 4.33058C11.7527 3.15848 13.3424 2.5 15 2.5ZM15 5C14.5075 5 14.0199 5.097 13.5649 5.28545C13.11 5.47391 12.6966 5.75013 12.3483 6.09835C12.0001 6.44657 11.7239 6.85997 11.5355 7.31494C11.347 7.76991 11.25 8.25754 11.25 8.75C11.25 9.24246 11.347 9.73009 11.5355 10.1851C11.7239 10.64 12.0001 11.0534 12.3483 11.4017C12.6966 11.7499 13.11 12.0261 13.5649 12.2145C14.0199 12.403 14.5075 12.5 15 12.5C15.9946 12.5 16.9484 12.1049 17.6517 11.4017C18.3549 10.6984 18.75 9.74456 18.75 8.75C18.75 7.75544 18.3549 6.80161 17.6517 6.09835C16.9484 5.39509 15.9946 5 15 5Z" fill="black"/>
</svg>
