<svg width="40" height="40" viewBox="0 0 40 40" fill="none" xmlns="http://www.w3.org/2000/svg">
<g clip-path="url(#clip0_73_124)">
<path d="M20.0067 40C17.2422 40 14.6422 39.4756 12.2067 38.4267C9.77259 37.3763 7.65481 35.9511 5.85333 34.1511C4.05185 32.3511 2.62593 30.2356 1.57556 27.8044C0.525185 25.3733 0 22.7741 0 20.0067C0 17.2393 0.525185 14.6393 1.57556 12.2067C2.62444 9.77259 4.04741 7.65481 5.84444 5.85333C7.64148 4.05185 9.75778 2.62593 12.1933 1.57556C14.6289 0.525185 17.2289 0 19.9933 0C22.7578 0 25.3578 0.525185 27.7933 1.57556C30.2274 2.62444 32.3452 4.04815 34.1467 5.84667C35.9481 7.64518 37.3741 9.76148 38.4244 12.1956C39.4748 14.6296 40 17.2289 40 19.9933C40 22.7578 39.4756 25.3578 38.4267 27.7933C37.3778 30.2289 35.9526 32.3467 34.1511 34.1467C32.3496 35.9467 30.2341 37.3726 27.8044 38.4244C25.3748 39.4763 22.7756 40.0015 20.0067 40ZM20 29.2311C21.2681 27.963 22.3889 26.663 23.3622 25.3311C24.1978 24.1933 24.9644 22.9304 25.6622 21.5422C26.36 20.1556 26.7089 18.7948 26.7089 17.46C26.7089 15.6259 26.0519 14.0526 24.7378 12.74C23.4237 11.4274 21.8444 10.7704 20 10.7689C18.1556 10.7674 16.5763 11.4244 15.2622 12.74C13.9481 14.0556 13.2919 15.6348 13.2933 17.4778C13.2933 18.8007 13.6444 20.1533 14.3467 21.5356C15.0489 22.9178 15.823 24.1881 16.6689 25.3467C17.623 26.6681 18.7341 27.963 20.0022 29.2311M20.0022 20C19.303 20 18.7074 19.7556 18.2156 19.2667C17.7252 18.7763 17.48 18.1815 17.48 17.4822C17.48 16.783 17.7244 16.1874 18.2133 15.6956C18.7022 15.2037 19.297 14.9578 19.9978 14.9578C20.6985 14.9578 21.2941 15.2022 21.7844 15.6911C22.2748 16.18 22.5207 16.7748 22.5222 17.4756C22.5237 18.1763 22.2785 18.7719 21.7867 19.2622C21.2948 19.7526 20.7 19.9985 20.0022 20Z" fill="#B9B9B9"/>
</g>
<defs>
<clipPath id="clip0_73_124">
<rect width="40" height="40" fill="white"/>
</clipPath>
</defs>
</svg>
